<svg width="28" height="28" viewBox="0 0 28 28" fill="none" xmlns="http://www.w3.org/2000/svg">
<path id="Vector" fill-rule="evenodd" clip-rule="evenodd" d="M3 1.5C3 1.10218 2.84196 0.720644 2.56066 0.43934C2.27936 0.158035 1.89782 0 1.5 0C1.10218 0 0.720644 0.158035 0.43934 0.43934C0.158035 0.720644 0 1.10218 0 1.5L0 26.5C0 27.328 0.672 28 1.5 28H26.5C26.8978 28 27.2794 27.842 27.5607 27.5607C27.842 27.2794 28 26.8978 28 26.5C28 26.1022 27.842 25.7206 27.5607 25.4393C27.2794 25.158 26.8978 25 26.5 25H3V19.44L7.404 14.736C7.986 15.068 8.66 15.256 9.376 15.256C10.284 15.256 11.12 14.956 11.792 14.444L14.638 17.1C14.4163 17.7682 14.3746 18.483 14.5173 19.1725C14.6599 19.8619 14.9818 20.5015 15.4505 21.0268C15.9192 21.5521 16.5182 21.9446 17.1869 22.1646C17.8557 22.3846 18.5706 22.4244 19.2597 22.28C19.9487 22.1355 20.5875 21.812 21.1116 21.3419C21.6357 20.8718 22.0266 20.2719 22.2449 19.6025C22.4632 18.9332 22.5011 18.2182 22.3549 17.5295C22.2086 16.8408 21.8834 16.2029 21.412 15.68L21.416 15.67L23.734 9.304C24.6578 9.22123 25.5241 8.81982 26.1845 8.16854C26.8449 7.51725 27.2583 6.6566 27.3539 5.73401C27.4495 4.81142 27.2214 3.8843 26.7085 3.11144C26.1957 2.33858 25.4301 1.76808 24.5429 1.49765C23.6557 1.22722 22.702 1.27369 21.8453 1.62911C20.9885 1.98452 20.282 2.62676 19.8468 3.44582C19.4115 4.26487 19.2746 5.20979 19.4594 6.11871C19.6443 7.02763 20.1394 7.84401 20.86 8.428L18.698 14.368C17.966 14.323 17.2354 14.4771 16.584 14.814L13.5 11.934C13.4489 11.8879 13.3955 11.8446 13.34 11.804C13.4204 11.2154 13.3686 10.6163 13.1883 10.0502C13.0079 9.48415 12.7037 8.96543 12.2976 8.53179C11.8916 8.09815 11.3939 7.7605 10.8409 7.54342C10.2879 7.32635 9.69348 7.2353 9.10087 7.27692C8.50825 7.31853 7.93236 7.49176 7.41513 7.78398C6.8979 8.07621 6.45233 8.48009 6.11086 8.96623C5.76938 9.45236 5.5406 10.0085 5.44116 10.5942C5.34172 11.1799 5.37411 11.7804 5.536 12.352L5.476 12.41L3 15.05V1.5Z" fill="black"/>
</svg>
