<svg width="61" height="61" viewBox="0 0 61 61" fill="none" xmlns="http://www.w3.org/2000/svg">
<g id="Group 26">
<circle id="Ellipse 67" cx="30.0352" cy="30.7607" r="29.5" stroke="black"/>
<path id="Vector" d="M30.4577 13.7607C26.9732 13.7607 24.6502 16.0123 24.6502 18.2638C24.6502 21.6412 25.8117 23.8927 26.9732 25.0185V26.1442H33.9423V25.0185C35.1038 23.8927 36.2653 21.6412 36.2653 18.2638C36.2653 16.0123 33.9423 13.7607 30.4577 13.7607ZM25.8408 18.3574L30.4577 19.847L35.0747 18.3574L32.229 25.2507L31.0095 24.7863L32.8098 20.4239L30.4577 21.1838L28.1057 20.4239L29.906 24.7863L28.6865 25.2507L25.8408 18.3574ZM19.7937 23.9208C18.095 24.1319 16.556 26.0669 16.556 28.5576C16.556 29.9367 17.0496 31.1539 17.7683 31.9983L18.6322 32.9974L17.3037 33.2366C16.3672 33.4125 15.6848 33.891 15.0968 34.672C14.5088 35.453 14.0587 36.5365 13.7466 37.796C13.1803 40.0616 13.0497 42.8338 13.0352 45.2824H16.1422L16.3048 47.3932H24.1856L24.3308 45.2824H27.2926C27.2926 42.8057 27.2636 39.9983 26.7482 37.7045C26.4578 36.4451 26.0295 35.3615 25.4342 34.5875C24.839 33.8136 24.1203 33.3351 23.0677 33.1803L21.7247 32.9763L22.574 31.942C23.2637 31.1047 23.7283 29.9015 23.7283 28.5576C23.7283 25.898 22.0151 23.9279 20.1421 23.9279L19.7937 23.9208ZM40.3814 23.9208C38.6827 24.1319 37.1437 26.0669 37.1437 28.5576C37.1437 29.9367 37.6373 31.1539 38.356 31.9983L39.2199 32.9974L37.8914 33.2366C36.9549 33.4125 36.2725 33.891 35.6845 34.672C35.0965 35.453 34.6464 36.5365 34.3343 37.796C33.768 40.0616 33.6374 42.8338 33.6229 45.2824H36.7299L36.8896 47.3932H44.7733L44.9185 45.2824H47.8803C47.8803 42.8057 47.8513 39.9983 47.3359 37.7045C47.0455 36.4451 46.6172 35.3615 46.0219 34.5875C45.4267 33.8136 44.708 33.3351 43.6554 33.1803L42.3124 32.9763L43.1617 31.942C43.8514 31.1047 44.316 29.9015 44.316 28.5576C44.316 25.898 42.6027 23.9279 40.7298 23.9279L40.3814 23.9208ZM26.9732 27.3404V28.6069H33.9423V27.3404H26.9732ZM28.1347 29.7327V30.9991H32.7808V29.7327H28.1347Z" fill="black"/>
</g>
</svg>
