<svg width="33" height="36" viewBox="0 0 33 36" fill="none" xmlns="http://www.w3.org/2000/svg">
<g id="Group">
<path id="Vector" d="M11.4525 5.63124C12.4292 2.77316 16.3782 2.6866 17.5362 5.37156L17.6342 5.63287L18.9521 9.4872C19.2542 10.3711 19.7423 11.18 20.3835 11.8593C21.0247 12.5385 21.8042 13.0724 22.6693 13.4248L23.0237 13.5571L26.878 14.8735C29.7361 15.8501 29.8226 19.7992 27.1393 20.9571L26.878 21.0551L23.0237 22.3731C22.1394 22.6749 21.3302 23.1629 20.6507 23.8042C19.9711 24.4454 19.437 25.2249 19.0844 26.0902L18.9521 26.443L17.6358 30.2989C16.6591 33.157 12.7101 33.2436 11.5538 30.5602L11.4525 30.2989L10.1362 26.4446C9.83434 25.5604 9.34633 24.7512 8.70509 24.0716C8.06385 23.392 7.2843 22.8579 6.41905 22.5053L6.06628 22.3731L2.21195 21.0567C-0.647759 20.0801 -0.734318 16.131 1.95064 14.9747L2.21195 14.8735L6.06628 13.5571C6.95022 13.2551 7.7591 12.767 8.43836 12.1257C9.11763 11.4845 9.65148 10.705 10.0039 9.83996L10.1362 9.4872L11.4525 5.63124ZM27.6097 2.95097e-07C27.9152 -3.85387e-07 28.2146 0.085707 28.4739 0.247382C28.7331 0.409056 28.9418 0.640214 29.0763 0.914586L29.1547 1.10567L29.7263 2.78132L31.4036 3.35294C31.7098 3.45696 31.9782 3.64955 32.1748 3.90629C32.3714 4.16302 32.4874 4.47235 32.5081 4.79508C32.5287 5.1178 32.4531 5.43939 32.2908 5.71908C32.1284 5.99878 31.8867 6.22399 31.5963 6.36617L31.4036 6.44456L29.7279 7.01618L29.1563 8.69347C29.0521 8.99957 28.8594 9.26786 28.6025 9.46432C28.3457 9.66078 28.0363 9.77658 27.7136 9.79705C27.3909 9.81751 27.0694 9.74172 26.7898 9.57927C26.5102 9.41683 26.2851 9.17504 26.1431 8.88455L26.0647 8.69347L25.4931 7.01781L23.8158 6.4462C23.5096 6.34217 23.2412 6.14959 23.0445 5.89285C22.8479 5.63611 22.7319 5.32678 22.7113 5.00406C22.6907 4.68133 22.7663 4.35975 22.9286 4.08005C23.0909 3.80036 23.3326 3.57515 23.6231 3.43296L23.8158 3.35457L25.4914 2.78295L26.063 1.10567C26.1732 0.782993 26.3815 0.502873 26.6589 0.304588C26.9363 0.106303 27.2687 -0.000204608 27.6097 2.95097e-07Z" fill="black"/>
</g>
</svg>
